HIERARCHY
ROOT root     
{
	OFFSET 0.0000 0.0000 0.0000
	CHANNELS 6 Xposition Yposition Zposition Zrotation Yrotation Xrotation
	JOINT pelvis   
	{
		OFFSET 0.0000 0.0000 0.0000
		CHANNELS 3 Zrotation Yrotation Xrotation
		JOINT thorax   
		{
			OFFSET 0.0000 23.0750 -5.0000
			CHANNELS 3 Zrotation Yrotation Xrotation
			JOINT rclavicle
			{
				OFFSET 0.0000 28.0009 0.0000
				CHANNELS 3 Zrotation Yrotation Xrotation
				JOINT rhumerus 
				{
					OFFSET -18.5725 5.5939 0.0000
					CHANNELS 3 Zrotation Yrotation Xrotation
					JOINT rradius  
					{
						OFFSET -24.8459 0.0000 0.0000
						CHANNELS 3 Zrotation Yrotation Xrotation
						JOINT rhand    
						{
							OFFSET -24.5477 0.0000 0.0000
							CHANNELS 3 Zrotation Yrotation Xrotation
							End Site
							{
								OFFSET -8.1826 0.0000 0.0000
							}
						}
					}
				}
			}
			JOINT lclavicle
			{
				OFFSET 0.0000 28.0009 0.0000
				CHANNELS 3 Zrotation Yrotation Xrotation
				JOINT lhumerus 
				{
					OFFSET 18.5725 5.5939 0.0000
					CHANNELS 3 Zrotation Yrotation Xrotation
					JOINT lradius  
					{
						OFFSET 24.8459 0.0000 0.0000
						CHANNELS 3 Zrotation Yrotation Xrotation
						JOINT lhand    
						{
							OFFSET 24.5477 0.0000 0.0000
							CHANNELS 3 Zrotation Yrotation Xrotation
							End Site
							{
								OFFSET 8.1826 0.0000 0.0000
							}
						}
					}
				}
			}
			JOINT head     
			{
				OFFSET 0.0000 35.2030 0.0000
				CHANNELS 3 Zrotation Yrotation Xrotation
				End Site
				{
					OFFSET 0.0000 11.7343 0.0000
				}
			}
		}
		JOINT rfemur   
		{
			OFFSET -8.2817 0.0000 0.0000
			CHANNELS 3 Zrotation Yrotation Xrotation
			JOINT rtibia   
			{
				OFFSET 0.0000 -43.3627 0.0000
				CHANNELS 3 Zrotation Yrotation Xrotation
				JOINT rfoot    
				{
					OFFSET 0.0000 -38.2947 0.0000
					CHANNELS 3 Zrotation Yrotation Xrotation
					JOINT rtoes    
					{
						OFFSET 0.0000 0.0000 16.6054
						CHANNELS 3 Zrotation Yrotation Xrotation
						End Site
						{
							OFFSET 0.0000 0.0000 5.5351
						}
					}
				}
			}
		}
		JOINT lfemur   
		{
			OFFSET 8.2817 0.0000 0.0000
			CHANNELS 3 Zrotation Yrotation Xrotation
			JOINT ltibia   
			{
				OFFSET 0.0000 -43.3627 0.0000
				CHANNELS 3 Zrotation Yrotation Xrotation
				JOINT lfoot    
				{
					OFFSET 0.0000 -38.2947 0.0000
					CHANNELS 3 Zrotation Yrotation Xrotation
					JOINT ltoes    
					{
						OFFSET 0.0000 0.0000 16.6054
						CHANNELS 3 Zrotation Yrotation Xrotation
						End Site
						{
							OFFSET 0.0000 0.0000 5.5351
						}
					}
				}
			}
		}
	}
}
MOTION
Frames: 19
Frame Time: .0333333
-49.109 79.894 2.2283 161.304 88.5935 -175.55 0 -0 0 3.14478 -0.827696 18.3023 17.602 -8.20769 -6.53696e-05 48.2809 3.56936 6.48995 -3.34944e-06 80.242 -3.50625e-06 -2.84101 0.656299 -0.0162999 -16.735 14.8579 -4.74519e-05 -54.4024 19.5248 14.0169 -0 -65.4339 0 -1.35624 4.63019 -0.0548018 -0.820506 -0.138696 -19.0383 10.2478 -12.5803 -42.6863 -0 -0 53.9862 -7.91865e-06 -4.03135 -15.6369 1.08831 3.04332e-06 -19.4512 -3.77547 9.4698 -54.3824 -0 -0 72.9281 -1.45065e-05 11.9693 -9.29197 -1.9605 -6.88741e-06 -21.9767 
-48.48 79.893 2.2153 163.025 88.6006 -173.849 0 -0 0 3.00435 -0.526215 18.3323 17.3798 -8.17641 8.80091e-05 47.9799 3.92019 6.45169 -2.09387e-06 81.0884 -1.79111e-06 -2.86833 0.628604 -0.0157003 -16.8092 15.0041 9.7373e-05 -54.4352 19.7658 14.1424 -8.58871e-07 -65.2548 5.49843e-07 -1.41285 4.61916 -0.0570017 -1.0119 -0.0234007 -18.9904 10.2239 -12.8147 -42.2367 -0 -0 54.0473 9.69344e-06 -3.85596 -15.6487 1.04149 -7.50242e-06 -20.8788 -4.30219 9.45006 -55.3855 -0 -0 71.7867 2.70896e-05 11.9123 -9.37079 -1.96736 -1.97716e-05 -22.0714 
-47.839 79.884 2.2015 165.408 88.6383 -171.477 0 -0 0 2.87334 -0.240597 18.3474 17.1725 -8.15152 -4.92555e-05 47.6795 4.26306 6.40101 -1.40416e-06 81.9051 -1.61812e-06 -2.89716 0.585506 -0.0147999 -16.8869 15.1552 3.16703e-05 -54.4775 20.0042 14.2399 -8.53545e-07 -65.0597 5.44396e-07 -1.48133 4.61923 -0.0597007 -1.19862 0.0962988 -18.9417 10.2065 -13.0433 -41.7674 -0 -0 54.1001 1.31086e-05 -3.67852 -15.6675 0.994594 8.55392e-06 -22.3104 -4.84922 9.44082 -56.3322 -0 -0 70.54 1.42047e-05 11.8329 -9.42487 -1.96495 1.93442e-06 -22.1654 
-47.186 79.867 2.1871 168.562 88.6147 -168.36 0 -0 0 2.74964 0.0291977 18.3492 16.9785 -8.13235 3.10693e-05 47.3783 4.59821 6.34337 -0 82.6816 -0 -2.92734 0.529195 -0.0135001 -16.966 15.3122 -1.39341e-05 -54.5322 20.2361 14.3064 -0 -64.8505 0 -1.55624 4.62998 -0.0629016 -1.37886 0.221391 -18.8998 10.195 -13.2676 -41.2788 -0 -0 54.1473 1.57697e-05 -3.49796 -15.6959 0.947399 -9.92294e-06 -23.6856 -5.41821 9.44625 -57.2237 -0 -0 69.1934 -1.99883e-06 11.743 -9.45448 -1.95567 1.08142e-05 -22.2756 
-46.52 79.843 2.1719 172.285 88.5882 -164.678 0 -0 0 2.63013 0.283416 18.3381 16.8004 -8.11795 -5.65655e-05 47.079 4.92467 6.28161 -0 83.4305 -0 -2.95548 0.462202 -0.0119 -17.0442 15.4751 2.57309e-05 -54.6036 20.4622 14.3376 -8.41802e-07 -64.6211 5.32386e-07 -1.63253 4.64934 -0.0663012 -1.55047 0.352403 -18.8684 10.1879 -13.4856 -40.7742 -0 -0 54.1911 -2.67217e-07 -3.31491 -15.7286 0.899503 -5.45112e-07 -25.0233 -6.01307 9.47254 -58.0649 -0 -0 67.7612 -2.85845e-05 11.6552 -9.46315 -1.94228 6.6046e-06 -22.3597 
-45.843 79.811 2.1558 176.534 88.6311 -160.439 0 -0 0 2.51201 0.5228 18.3162 16.6412 -8.10632 -5.9529e-05 46.7796 5.23988 6.21601 -2.69294e-06 84.1581 -2.43121e-06 -2.97699 0.388107 -0.0101001 -17.12 15.6428 3.57904e-05 -54.6948 20.6802 14.3338 -8.35309e-07 -64.3716 5.2574e-07 -1.70508 4.67383 -0.0695992 -1.7108 0.489088 -18.8567 10.184 -13.6965 -40.2562 -0 -0 54.2337 5.67169e-06 -3.12946 -15.7705 0.851288 5.30043e-06 -26.2625 -6.64041 9.52769 -58.8591 -0 -0 66.2547 -3.73033e-05 11.5824 -9.45502 -1.92823 2.78572e-06 -22.3481 
-45.154 79.773 2.1382 -178.94 88.5925 -155.953 0 -0 0 2.38836 0.746289 18.2853 16.4985 -8.09727 -1.04589e-05 46.4884 5.54446 6.14956 -0 84.8424 -0 -2.99072 0.313497 -0.00819991 -17.1962 15.8128 -9.54895e-05 -54.8025 20.8923 14.2912 -0 -64.1056 0 -1.76821 4.70303 -0.0726008 -1.85589 0.631695 -18.8705 10.1787 -13.8992 -39.73 -0 -0 54.2763 -3.86183e-06 -2.94405 -15.7976 0.802095 -5.17656e-06 -27.6117 -7.31176 9.618 -59.6179 -0 -0 64.6942 -3.4071e-05 11.5381 -9.421 -1.91383 -1.15203e-05 -22.3183 
-44.454 79.728 2.1189 -174.233 88.5755 -151.272 0 -0 0 2.25685 0.95462 18.2464 16.3764 -8.08781 8.42843e-06 46.2044 5.83233 6.07801 -0 85.5139 -0 -2.99003 0.241397 -0.00629957 -17.2662 15.9853 2.78376e-05 -54.9314 21.0931 14.2138 0 -63.817 0 -1.81769 4.73096 -0.0750994 -1.98207 0.7785 -18.9184 10.1722 -14.0973 -39.1981 -0 -0 54.3234 -2.04442e-06 -2.75852 -15.8321 0.753111 5.1745e-06 -28.8317 -8.03865 9.75135 -60.3482 -0 -0 63.0924 4.20458e-05 11.5343 -9.36642 -1.90234 -1.23263e-05 -22.1934 
-43.745 79.679 2.0972 -169.59 88.5298 -146.656 0 -0 0 2.11249 1.14736 18.1997 16.2754 -8.07713 -1.56971e-05 45.9296 6.10126 5.99902 -3.08007e-06 86.1614 -3.29364e-06 -2.97241 0.176502 -0.00460009 -17.3323 16.1575 -1.46328e-05 -55.0773 21.2782 14.1064 -0 -63.5019 0 -1.84966 4.75492 -0.0767988 -2.08577 0.927253 -19.0046 10.1606 -14.2909 -38.663 -0 -0 54.3717 -1.65259e-05 -2.57395 -15.8682 0.704298 -1.00886e-06 -29.9507 -8.83398 9.92964 -61.0594 -0 -0 61.4634 3.0967e-05 11.5822 -9.29127 -1.89532 -2.89997e-06 -21.9999 
-43.028 79.625 2.0729 -165.236 88.4791 -142.323 0 -0 0 1.95112 1.32255 18.1476 16.1939 -8.06403 -2.62407e-05 45.6725 6.34769 5.91217 -3.70052e-06 86.7906 -3.91404e-06 -2.93789 0.1235 -0.00319998 -17.3953 16.3253 1.9975e-05 -55.2348 21.4523 13.969 -8.05725e-07 -63.171 4.95404e-07 -1.862 4.77464 -0.0776008 -2.16331 1.07707 -19.1342 10.1419 -14.4828 -38.1274 -0 -0 54.4213 -1.55602e-05 -2.39256 -15.8895 0.655403 -5.72179e-06 -31.1434 -9.71315 10.1571 -61.7536 -0 -0 59.8127 2.83723e-05 11.6888 -9.18843 -1.89222 8.67435e-06 -21.8669 
-42.301 79.567 2.0453 -161.394 88.4192 -138.493 0 -0 0 1.77011 1.47941 18.0897 16.1321 -8.04697 -1.68911e-05 45.4382 6.56722 5.81467 -0 87.3965 -0 -2.88643 0.0845996 -0.00210002 -17.4588 16.48 -3.42122e-05 -55.4005 21.6152 13.8036 -4.87193e-07 -62.825 7.97746e-07 -1.85443 4.78945 -0.0775973 -2.21266 1.22606 -19.3051 10.115 -14.6795 -37.5923 -0 -0 54.4715 -4.18666e-06 -2.21376 -15.8939 0.606501 -2.98958e-06 -32.3966 -10.6864 10.4303 -62.4309 -0 -0 58.1397 3.16439e-05 11.8564 -9.0596 -1.8934 4.82728e-06 -21.8376 
-41.566 79.506 2.0145 -158.076 88.3384 -135.185 0 -0 0 1.57195 1.61851 18.0286 16.0903 -8.02669 -2.96746e-05 45.2243 6.75721 5.70534 -5.31921e-06 87.9913 -5.13439e-06 -2.81933 0.0594004 -0.00150003 -17.5183 16.6266 -7.73586e-05 -55.5711 21.7558 13.6264 -4.78562e-07 -62.4561 7.89344e-07 -1.82664 4.79669 -0.076497 -2.2346 1.3712 -19.5159 10.081 -14.8817 -37.0568 -0 -0 54.5191 -1.41988e-05 -2.03658 -15.8864 0.557705 7.48168e-07 -33.6653 -11.7578 10.7458 -63.0854 -0 -0 56.4443 4.96459e-05 12.083 -8.9154 -1.90015 1.60531e-05 -21.912 
-40.82 79.442 1.9803 -155.287 88.2809 -132.39 0 -0 0 1.35841 1.73953 17.9644 16.0643 -8.00362 8.0423e-06 45.0379 6.91508 5.58587 -1.19419e-05 88.5405 -1.16401e-05 -2.74109 0.0475999 -0.0011 -17.5774 16.7581 -9.7673e-05 -55.7437 21.8775 13.4405 -7.80794e-07 -62.0647 4.69745e-07 -1.78117 4.79933 -0.0746998 -2.23105 1.51233 -19.7585 10.0397 -15.0946 -36.5161 -0 -0 54.5622 -7.93288e-06 -1.85901 -15.8604 0.508199 -1.28961e-06 -35.0187 -12.9259 11.0972 -63.7027 -0 -0 54.7145 1.16769e-05 12.3591 -8.75782 -1.9108 4.38932e-06 -22.1668 
-40.063 79.373 1.9428 -153.015 88.1718 -130.124 0 -0 0 1.13482 1.84318 17.9004 16.0529 -7.9786 -1.83279e-05 44.8814 7.0404 5.46012 -6.5012e-06 89.0838 -6.60789e-06 -2.65648 0.0472 -0.0011 -17.6373 16.872 3.24387e-06 -55.915 21.9798 13.2523 -0 -61.6547 0 -1.72129 4.79915 -0.072099 -2.2068 1.64941 -20.0236 9.99371 -15.3209 -35.9668 -0 -0 54.6041 -6.921e-06 -1.67712 -15.8153 0.4572 -3.97495e-06 -36.4755 -14.1792 11.4781 -64.2649 -0 -0 52.9475 -2.93865e-06 12.6675 -8.59222 -1.92315 3.45425e-06 -22.6223 
-39.29 79.3 1.9025 -150.917 88.0742 -128.031 0 -0 0 0.910695 1.93286 17.838 16.0502 -7.95505 5.88689e-06 44.753 7.13507 5.33403 -3.70205e-05 89.6475 -3.72975e-05 -2.57152 0.0547996 -0.00119999 -17.696 16.9754 -5.13556e-05 -56.0825 22.0543 13.0767 0 -61.2184 0 -1.65085 4.79805 -0.0692029 -2.16952 1.78281 -20.3005 9.94626 -15.5638 -35.3987 -0 -0 54.6441 7.13811e-06 -1.48554 -15.7589 0.403499 -1.60887e-07 -37.9555 -15.4961 11.8831 -64.7543 -0 -0 51.1448 -1.49868e-05 12.9853 -8.42942 -1.93601 -4.86074e-06 -23.1956 
-38.499 79.22 1.8594 -149.04 87.9581 -126.174 0 -0 0 0.690801 2.00951 17.7837 16.0524 -7.93151 -1.9293e-06 44.6563 7.19947 5.21478 -179.999 89.8152 -179.999 -2.4911 0.0677996 -0.00150001 -17.7623 17.0555 -7.49651e-05 -56.2411 22.1192 12.9059 -0 -60.7717 0 -1.5757 4.80074 -0.0661004 -2.12628 1.91715 -20.5766 9.8981 -15.828 -34.8043 -0 -0 54.6866 1.4832e-06 -1.27786 -15.6791 0.345402 -7.47401e-06 -39.5848 -16.849 12.3085 -65.1491 -0 -0 49.3093 6.09492e-06 13.2834 -8.25767 -1.94206 1.25913e-06 -23.9811 
-37.686 79.131 1.8142 -147.048 87.8089 -124.232 0 -0 0 0.483792 2.07686 17.7411 16.0545 -7.90972 1.22319e-05 44.5898 7.23778 5.11089 -180 89.5067 -180 -2.41942 0.0828004 -0.00170002 -17.8378 17.1147 -2.79622e-05 -56.3882 22.1797 12.742 -4.33091e-07 -60.3184 7.45357e-07 -1.50093 4.81016 -0.0630014 -2.086 2.05579 -20.8395 9.85069 -16.1145 -34.1758 -0 -0 54.7367 -3.9428e-06 -1.04749 -15.576 0.281302 9.48979e-07 -41.3553 -18.1983 12.7527 -65.4315 -0 -0 47.4658 -3.82834e-05 13.5352 -8.07441 -1.93647 1.00961e-05 -24.9171 
-36.848 79.032 1.7682 -144.746 87.6804 -121.998 0 -0 0 0.303414 2.14095 17.7125 16.0517 -7.89491 2.66198e-05 44.5506 7.25731 5.0333 -180 89.1074 -180 -2.35948 0.0959005 -0.00199998 -17.9141 17.1693 -5.87564e-05 -56.5343 22.2164 12.6042 -0 -59.8424 0 -1.43106 4.82538 -0.0602988 -2.05881 2.20183 -21.0812 9.80987 -16.4184 -33.5056 -0 -0 54.8033 4.12312e-07 -0.786606 -15.4701 0.209801 1.05773e-06 -43.0455 -19.4888 13.2063 -65.5991 -0 -0 45.6541 -1.73145e-05 13.7165 -7.89238 -1.91945 1.86962e-05 -25.7365 
-35.983 78.92 1.7224 -142.024 87.5211 -119.381 0 -0 0 0.15379 2.20414 17.6982 16.0415 -7.8864 9.8347e-06 44.5345 7.26296 4.99022 -180 88.7536 -180 -2.3119 0.1055 -0.00209998 -17.9938 17.2193 -7.31199e-05 -56.6756 22.2431 12.4855 -0 -59.3568 0 -1.37126 4.84796 -0.0580027 -2.05046 2.36063 -21.2931 9.77477 -16.7375 -32.7911 -0 -0 54.8957 2.79166e-06 -0.489603 -15.352 0.129604 8.79742e-07 -44.711 -20.6674 13.6656 -65.6471 -0 -0 43.9249 -3.3732e-05 13.8155 -7.69908 -1.88685 -1.39128e-05 -26.4035 
